HIERARCHY
ROOT Hips
{
    OFFSET 0.000000 0.000000 0.000000
    CHANNELS 6 Xposition Yposition Zposition Zrotation Xrotation Yrotation
    JOINT Spine
    {
        OFFSET -0.000000 14.517291 0.000000
        CHANNELS 3 Zrotation Xrotation Yrotation
        JOINT Spine1
        {
            OFFSET -0.000000 37.558300 0.000000
            CHANNELS 3 Zrotation Xrotation Yrotation
            JOINT Neck
            {
                OFFSET -0.000000 37.404057 3.400369
                CHANNELS 3 Zrotation Xrotation Yrotation
                JOINT Head
                {
                    OFFSET -0.000000 24.785618 -3.540803
                    CHANNELS 3 Zrotation Xrotation Yrotation
                    End Site
                    {
                        OFFSET -0.000000 35.408028 0.000000
                    }
                }
            }
            JOINT LeftShoulder
            {
                OFFSET 6.992933 33.973492 -0.192664
                CHANNELS 3 Zrotation Xrotation Yrotation
                JOINT LeftArm
                {
                    OFFSET 21.527611 0.000000 0.000000
                    CHANNELS 3 Zrotation Xrotation Yrotation
                    JOINT LeftForeArm
                    {
                        OFFSET 56.353916 0.000000 0.000000
                        CHANNELS 3 Zrotation Xrotation Yrotation
                        JOINT LeftHand
                        {
                            OFFSET 47.774071 0.000000 0.000000
                            CHANNELS 3 Zrotation Xrotation Yrotation
                            End Site
                            {
                                OFFSET 26.556021 0.000000 0.000000
                            }
                        }
                    }
                }
            }
            JOINT RightShoulder
            {
                OFFSET -7.065357 33.973492 -0.192664
                CHANNELS 3 Zrotation Xrotation Yrotation
                JOINT RightArm
                {
                    OFFSET -21.527611 0.000000 0.000000
                    CHANNELS 3 Zrotation Xrotation Yrotation
                    JOINT RightForeArm
                    {
                        OFFSET -56.353916 0.000000 0.000000
                        CHANNELS 3 Zrotation Xrotation Yrotation
                        JOINT RightHand
                        {
                            OFFSET -47.774071 0.000000 0.000000
                            CHANNELS 3 Zrotation Xrotation Yrotation
                            End Site
                            {
                                OFFSET -26.556021 0.000000 0.000000
                            }
                        }
                    }
                }
            }
        }
    }
    JOINT LeftUpLeg
    {
        OFFSET 17.704014 0.000000 0.000000
        CHANNELS 3 Zrotation Xrotation Yrotation
        JOINT LeftLeg
        {
            OFFSET -0.000000 -81.181816 0.000000
            CHANNELS 3 Zrotation Xrotation Yrotation
            JOINT LeftFoot
            {
                OFFSET -0.000000 -62.821102 0.000000
                CHANNELS 3 Zrotation Xrotation Yrotation
                JOINT LeftToeBase
                {
                    OFFSET -0.000000 -11.507608 26.556021
                    CHANNELS 3 Zrotation Xrotation Yrotation
                    End Site
                    {
                        OFFSET -0.000000 0.000000 7.081605
                    }
                }
            }
        }
    }
    JOINT RightUpLeg
    {
        OFFSET -17.704014 0.000000 0.000000
        CHANNELS 3 Zrotation Xrotation Yrotation
        JOINT RightLeg
        {
            OFFSET -0.000000 -81.181816 0.000000
            CHANNELS 3 Zrotation Xrotation Yrotation
            JOINT RightFoot
            {
                OFFSET -0.000000 -62.821102 0.000000
                CHANNELS 3 Zrotation Xrotation Yrotation
                JOINT RightToeBase
                {
                    OFFSET -0.000000 -11.507608 26.556021
                    CHANNELS 3 Zrotation Xrotation Yrotation
                    End Site
                    {
                        OFFSET -0.000000 0.000000 7.081605
                    }
                }
            }
        }
    }
}
MOTION
Frames:    10
Frame Time:    0.008333
24.817768    156.335709    -34.832966    1.479537    -0.906242    -45.647247    3.607367    -2.140884    4.770714    -1.035917    4.842347    1.610201    16.175865    -5.733861    14.527888    -9.406572    11.062935    11.466369    9.248518    0.548045    -18.644953    -13.626280    -16.273573    -45.705486    10.168569    -38.729721    -29.469967    -28.060728    -26.833822    -43.677135    -9.901741    2.398768    5.579696    33.338791    3.888284    79.833084    7.753390    -18.043310    88.215683    14.125548    -21.824867    27.800674    17.210829    -18.653549    4.663099    -11.671756    18.306616    -3.262625    -8.297556    -0.372378    38.200657    0.000000    0.000000    0.000000    -16.096045    1.250141    -5.818419    6.663495    27.296379    -2.467018    5.576164    -21.289228    -16.847116    0.000000    0.000000    0.000000    
24.842239    156.337311    -34.837540    1.469805    -0.907116    -45.613041    3.591069    -2.128146    4.721537    -1.026309    4.812915    1.593340    16.208284    -5.674168    14.568138    -9.385646    11.010043    11.506910    9.233648    0.557964    -18.609392    -13.625150    -16.266685    -45.679955    10.162299    -38.740913    -29.499500    -28.067638    -26.846500    -43.663670    -9.901091    2.284163    5.518265    33.126114    3.274200    79.447166    7.901728    -17.254459    87.777374    13.852304    -21.191334    27.863888    17.204832    -18.661930    4.656743    -11.674899    18.295383    -3.263707    -8.292919    -0.346641    38.193497    0.000000    0.000000    0.000000    -16.086611    1.263157    -5.791044    6.672919    27.289639    -2.440415    5.567647    -21.290703    -16.936512    0.000000    0.000000    0.000000    
24.859024    156.340103    -34.868504    1.468236    -0.900347    -45.570839    3.551120    -2.115479    4.669384    -1.013196    4.768050    1.575396    16.249744    -5.609488    14.599485    -9.356302    10.959347    11.537647    9.247124    0.578351    -18.589401    -13.558198    -16.100166    -45.619503    10.371175    -38.871643    -29.464516    -28.114569    -26.936703    -43.644505    -9.888997    2.151500    5.475013    32.920376    2.692047    79.063049    8.028474    -16.503231    87.330025    13.454703    -20.608601    27.876448    17.211483    -18.688076    4.663478    -11.676707    18.288046    -3.323995    -8.298995    -0.314938    38.210903    0.000000    0.000000    0.000000    -16.058878    1.264066    -5.782019    6.664886    27.281931    -2.481676    5.563424    -21.299358    -16.951168    0.000000    0.000000    0.000000    
24.880737    156.338715    -34.873592    1.458436    -0.903216    -45.536522    3.538977    -2.109647    4.627887    -1.015313    4.745150    1.561568    16.253569    -5.556102    14.617051    -9.291630    10.913590    11.562027    9.253658    0.590796    -18.579229    -13.649912    -16.335222    -45.602409    10.058615    -38.677872    -29.577980    -27.998569    -26.825024    -43.640350    -9.907491    2.013595    5.417985    32.700665    2.140641    78.690567    8.083002    -15.802262    86.837997    12.845002    -20.055185    27.877445    17.206530    -18.693521    4.655060    -11.680025    18.277435    -3.337029    -8.298074    -0.297592    38.197624    0.000000    0.000000    0.000000    -16.050159    1.286643    -5.756056    6.676563    27.261189    -2.497060    5.563791    -21.300865    -16.988974    0.000000    0.000000    0.000000    
24.907185    156.336777    -34.883343    1.454681    -0.898065    -45.500671    3.531136    -2.102966    4.586835    -1.033780    4.708507    1.548439    16.303463    -5.501664    14.646845    -9.267798    10.876362    11.588945    9.264561    0.602347    -18.577795    -13.701877    -16.486366    -45.541828    9.792003    -38.555843    -29.736708    -27.886637    -26.795443    -43.576614    -9.910365    1.876422    5.386410    32.451912    1.612528    78.271492    8.205923    -15.109140    86.449463    12.588936    -19.486826    27.994209    17.200335    -18.710419    4.656905    -11.668800    18.267456    -3.382479    -8.305966    -0.282706    38.200493    0.000000    0.000000    0.000000    -16.039486    1.294832    -5.773744    6.670194    27.250271    -2.511394    5.537406    -21.298141    -16.991543    0.000000    0.000000    0.000000    
24.931210    156.337601    -34.892021    1.441258    -0.899056    -45.465153    3.520159    -2.085176    4.544535    -1.034564    4.677611    1.534344    16.329554    -5.458622    14.670766    -9.236951    10.846578    11.613889    9.269652    0.601707    -18.575970    -13.686657    -16.357317    -45.541046    10.038893    -38.667072    -29.567860    -27.981346    -26.838703    -43.586788    -9.961420    1.730931    5.359333    32.242275    1.098107    77.884872    8.360604    -14.419770    86.036995    12.338515    -18.947186    28.097076    17.195498    -18.716885    4.648747    -11.667718    18.255999    -3.388319    -8.288738    -0.257026    38.182274    0.000000    0.000000    0.000000    -16.028246    1.319902    -5.791801    6.667476    27.224644    -2.505666    5.535378    -21.291052    -17.019976    0.000000    0.000000    0.000000    
24.962273    156.338547    -34.900345    1.436233    -0.894499    -45.434860    3.515049    -2.075358    4.506502    -1.045150    4.652698    1.522015    16.346624    -5.434838    14.695200    -9.197784    10.823653    11.639361    9.289694    0.593667    -18.565722    -13.721207    -16.362236    -45.513809    10.010855    -38.695797    -29.574957    -27.980686    -26.890272    -43.539375    -10.013125    1.607100    5.336308    31.975233    0.623771    77.496086    8.515520    -13.834348    85.716080    12.112490    -18.518791    28.160158    17.184517    -18.735909    4.647779    -11.657292    18.251898    -3.386180    -8.283765    -0.229809    38.161919    0.000000    0.000000    0.000000    -16.022020    1.328210    -5.806587    6.667767    27.207838    -2.535711    5.536462    -21.285421    -17.005266    0.000000    0.000000    0.000000    
24.989317    156.337494    -34.911804    1.425265    -0.887187    -45.410873    3.520314    -2.068939    4.483326    -1.063917    4.633468    1.514933    16.403187    -5.388041    14.713103    -9.217722    10.787750    11.649631    9.312224    0.601075    -18.567051    -13.736452    -16.368031    -45.496956    9.999837    -38.707458    -29.547560    -27.971455    -26.911057    -43.543198    -10.056892    1.514419    5.310206    31.684328    0.126651    77.135658    8.721642    -13.252644    85.405373    11.949857    -18.120041    28.267744    17.187683    -18.746729    4.642499    -11.649529    18.242603    -3.412911    -8.295370    -0.228641    38.165424    0.000000    0.000000    0.000000    -16.009420    1.336567    -5.833586    6.654726    27.194941    -2.513500    5.545388    -21.278749    -16.995676    0.000000    0.000000    0.000000    
25.016298    156.339249    -34.925156    1.411678    -0.882366    -45.389133    3.510748    -2.061521    4.463299    -1.055587    4.626725    1.507939    16.462919    -5.343929    14.738488    -9.272400    10.741828    11.664275    9.329447    0.587606    -18.571402    -13.756680    -16.358850    -45.472305    9.989923    -38.725071    -29.528570    -27.991034    -26.928320    -43.540482    -10.107418    1.400379    5.268290    31.441875    -0.369518    76.796616    8.984757    -12.597893    85.082245    11.766080    -17.710190    28.305548    17.190359    -18.760118    4.636480    -11.645387    18.241693    -3.422308    -8.293896    -0.205990    38.163906    0.000000    0.000000    0.000000    -15.996421    1.348288    -5.848693    6.653057    27.176559    -2.514103    5.539541    -21.267962    -16.998737    0.000000    0.000000    0.000000    
25.046057    156.341492    -34.937832    1.403503    -0.873752    -45.371410    3.503728    -2.048868    4.451772    -1.053470    4.600115    1.503968    16.500675    -5.327185    14.751525    -9.277283    10.735272    11.672009    9.351470    0.588231    -18.572178    -13.789214    -16.363707    -45.469097    9.982924    -38.708736    -29.500349    -27.997141    -26.915560    -43.524075    -10.169876    1.303004    5.218448    31.150909    -0.813704    76.457512    9.236825    -12.032594    84.823082    11.539594    -17.394524    28.355375    17.191532    -18.776834    4.639109    -11.635921    18.239317    -3.439381    -8.295408    -0.187472    38.163158    0.000000    0.000000    0.000000    -15.984356    1.351583    -5.860378    6.651297    27.154276    -2.531285    5.540565    -21.252657    -16.986229    0.000000    0.000000    0.000000    
